<mxfile host="app.diagrams.net" agent="Mozilla/5.0 (Windows NT 10.0; Win64; x64) AppleWebKit/537.36 (KHTML, like Gecko) Chrome/134.0.0.0 Safari/537.36" version="26.1.3">
  <diagram name="Trang-1" id="ETS7reIvepq3WBP1_f4g">
    <mxGraphModel dx="1861" dy="412" grid="1" gridSize="10" guides="1" tooltips="1" connect="1" arrows="1" fold="1" page="1" pageScale="1" pageWidth="827" pageHeight="1169" math="0" shadow="0">
      <root>
        <mxCell id="0" />
        <mxCell id="1" parent="0" />
        <mxCell id="bpieC7WKzqsFBxFrWJCF-1" value="&#xa;  &#xa;    &#xa;      &#xa;        &#xa;        &#xa;        &#xa;        &#xa;        &#xa;          &#xa;        &#xa;        &#xa;        &#xa;        &#xa;          &#xa;        &#xa;        &#xa;        &#xa;        &#xa;          &#xa;        &#xa;        &#xa;        &#xa;        &#xa;          &#xa;        &#xa;        &#xa;          &#xa;        &#xa;        &#xa;          &#xa;        &#xa;        &#xa;          &#xa;        &#xa;        &#xa;          &#xa;        &#xa;        &#xa;          &#xa;        &#xa;        &#xa;        &#xa;        &#xa;          &#xa;        &#xa;        &#xa;          &#xa;        &#xa;        &#xa;          &#xa;        &#xa;        &#xa;          &#xa;        &#xa;        &#xa;          &#xa;        &#xa;        &#xa;        &#xa;        &#xa;          &#xa;        &#xa;        &#xa;          &#xa;        &#xa;        &#xa;          &#xa;        &#xa;        &#xa;          &#xa;        &#xa;        &#xa;        &#xa;        &#xa;          &#xa;        &#xa;        &#xa;          &#xa;        &#xa;        &#xa;          &#xa;        &#xa;        &#xa;          &#xa;        &#xa;        &#xa;          &#xa;        &#xa;        &#xa;          &#xa;        &#xa;        &#xa;        &#xa;        &#xa;          &#xa;        &#xa;        &#xa;          &#xa;        &#xa;        &#xa;          &#xa;        &#xa;        &#xa;          &#xa;        &#xa;        &#xa;          &#xa;        &#xa;        &#xa;        &#xa;        &#xa;          &#xa;        &#xa;        " style="text;whiteSpace=wrap;html=1;" vertex="1" parent="1">
          <mxGeometry width="30" height="1660" as="geometry" />
        </mxCell>
        <mxCell id="bpieC7WKzqsFBxFrWJCF-2" value="Khách hàng" style="shape=umlActor;verticalLabelPosition=bottom;verticalAlign=top;" vertex="1" parent="1">
          <mxGeometry x="20" y="150" width="40" height="80" as="geometry" />
        </mxCell>
        <mxCell id="bpieC7WKzqsFBxFrWJCF-3" value="Người quản lý" style="shape=umlActor;verticalLabelPosition=bottom;verticalAlign=top;" vertex="1" parent="1">
          <mxGeometry x="800" y="200" width="40" height="80" as="geometry" />
        </mxCell>
        <mxCell id="bpieC7WKzqsFBxFrWJCF-4" value="Nhân viên bán hàng" style="shape=umlActor;verticalLabelPosition=bottom;verticalAlign=top;" vertex="1" parent="1">
          <mxGeometry x="20" y="510" width="40" height="80" as="geometry" />
        </mxCell>
        <mxCell id="bpieC7WKzqsFBxFrWJCF-5" value="Tìm kiếm sản phẩm" style="ellipse;whiteSpace=wrap;html=1;aspect=fixed;fillColor=#dae8fc;strokeColor=#6c8ebf;" vertex="1" parent="1">
          <mxGeometry x="150" y="40" width="220" height="40" as="geometry" />
        </mxCell>
        <mxCell id="bpieC7WKzqsFBxFrWJCF-6" value="Xem chi tiết sản phẩm" style="ellipse;whiteSpace=wrap;html=1;aspect=fixed;fillColor=#dae8fc;strokeColor=#6c8ebf;" vertex="1" parent="1">
          <mxGeometry x="150" y="100" width="220" height="40" as="geometry" />
        </mxCell>
        <mxCell id="bpieC7WKzqsFBxFrWJCF-7" value="Mua hàng" style="ellipse;whiteSpace=wrap;html=1;aspect=fixed;fillColor=#dae8fc;strokeColor=#6c8ebf;" vertex="1" parent="1">
          <mxGeometry x="150" y="160" width="220" height="40" as="geometry" />
        </mxCell>
        <mxCell id="bpieC7WKzqsFBxFrWJCF-8" value="Thanh toán" style="ellipse;whiteSpace=wrap;html=1;aspect=fixed;fillColor=#dae8fc;strokeColor=#6c8ebf;" vertex="1" parent="1">
          <mxGeometry x="150" y="220" width="220" height="40" as="geometry" />
        </mxCell>
        <mxCell id="bpieC7WKzqsFBxFrWJCF-9" value="Nhận hóa đơn" style="ellipse;whiteSpace=wrap;html=1;aspect=fixed;fillColor=#dae8fc;strokeColor=#6c8ebf;" vertex="1" parent="1">
          <mxGeometry x="150" y="280" width="220" height="40" as="geometry" />
        </mxCell>
        <mxCell id="bpieC7WKzqsFBxFrWJCF-10" value="Đánh giá sản phẩm" style="ellipse;whiteSpace=wrap;html=1;aspect=fixed;fillColor=#dae8fc;strokeColor=#6c8ebf;" vertex="1" parent="1">
          <mxGeometry x="150" y="340" width="220" height="40" as="geometry" />
        </mxCell>
        <mxCell id="bpieC7WKzqsFBxFrWJCF-11" value="Xem báo cáo doanh số" style="ellipse;whiteSpace=wrap;html=1;aspect=fixed;fillColor=#e1d5e7;strokeColor=#9673a6;" vertex="1" parent="1">
          <mxGeometry x="540" y="80" width="220" height="40" as="geometry" />
        </mxCell>
        <mxCell id="bpieC7WKzqsFBxFrWJCF-12" value="Phân tích dữ liệu kinh doanh" style="ellipse;whiteSpace=wrap;html=1;aspect=fixed;fillColor=#e1d5e7;strokeColor=#9673a6;" vertex="1" parent="1">
          <mxGeometry x="540" y="140" width="220" height="40" as="geometry" />
        </mxCell>
        <mxCell id="bpieC7WKzqsFBxFrWJCF-13" value="Quản lý tồn kho" style="ellipse;whiteSpace=wrap;html=1;aspect=fixed;fillColor=#e1d5e7;strokeColor=#9673a6;" vertex="1" parent="1">
          <mxGeometry x="540" y="200" width="220" height="40" as="geometry" />
        </mxCell>
        <mxCell id="bpieC7WKzqsFBxFrWJCF-14" value="Quản lý nhân viên" style="ellipse;whiteSpace=wrap;html=1;aspect=fixed;fillColor=#e1d5e7;strokeColor=#9673a6;" vertex="1" parent="1">
          <mxGeometry x="540" y="260" width="220" height="40" as="geometry" />
        </mxCell>
        <mxCell id="bpieC7WKzqsFBxFrWJCF-15" value="Xử lý đánh giá tiêu cực" style="ellipse;whiteSpace=wrap;html=1;aspect=fixed;fillColor=#e1d5e7;strokeColor=#9673a6;" vertex="1" parent="1">
          <mxGeometry x="540" y="320" width="220" height="40" as="geometry" />
        </mxCell>
        <mxCell id="bpieC7WKzqsFBxFrWJCF-16" value="Tạo hóa đơn giao dịch" style="ellipse;whiteSpace=wrap;html=1;aspect=fixed;fillColor=#d5e8d4;strokeColor=#82b366;" vertex="1" parent="1">
          <mxGeometry x="150" y="420" width="220" height="40" as="geometry" />
        </mxCell>
        <mxCell id="bpieC7WKzqsFBxFrWJCF-17" value="Hỗ trợ tra cứu sản phẩm" style="ellipse;whiteSpace=wrap;html=1;aspect=fixed;fillColor=#d5e8d4;strokeColor=#82b366;" vertex="1" parent="1">
          <mxGeometry x="150" y="480" width="220" height="40" as="geometry" />
        </mxCell>
        <mxCell id="bpieC7WKzqsFBxFrWJCF-18" value="Kiểm tra tồn kho" style="ellipse;whiteSpace=wrap;html=1;aspect=fixed;fillColor=#d5e8d4;strokeColor=#82b366;" vertex="1" parent="1">
          <mxGeometry x="150" y="540" width="220" height="40" as="geometry" />
        </mxCell>
        <mxCell id="bpieC7WKzqsFBxFrWJCF-19" value="Xử lý giao dịch bán hàng" style="ellipse;whiteSpace=wrap;html=1;aspect=fixed;fillColor=#d5e8d4;strokeColor=#82b366;" vertex="1" parent="1">
          <mxGeometry x="150" y="600" width="220" height="40" as="geometry" />
        </mxCell>
        <mxCell id="bpieC7WKzqsFBxFrWJCF-20" style="edgeStyle=orthogonalEdgeStyle;rounded=1;exitX=1;exitY=0.5;entryX=0;entryY=0.5;endArrow=classic;html=1;" edge="1" parent="1" source="bpieC7WKzqsFBxFrWJCF-2" target="bpieC7WKzqsFBxFrWJCF-5">
          <mxGeometry relative="1" as="geometry" />
        </mxCell>
        <mxCell id="bpieC7WKzqsFBxFrWJCF-21" style="edgeStyle=orthogonalEdgeStyle;rounded=1;exitX=1;exitY=0.5;entryX=0;entryY=0.5;endArrow=classic;html=1;" edge="1" parent="1" source="bpieC7WKzqsFBxFrWJCF-2" target="bpieC7WKzqsFBxFrWJCF-6">
          <mxGeometry relative="1" as="geometry" />
        </mxCell>
        <mxCell id="bpieC7WKzqsFBxFrWJCF-22" style="edgeStyle=orthogonalEdgeStyle;rounded=1;exitX=1;exitY=0.5;entryX=0;entryY=0.5;endArrow=classic;html=1;" edge="1" parent="1" source="bpieC7WKzqsFBxFrWJCF-2" target="bpieC7WKzqsFBxFrWJCF-7">
          <mxGeometry relative="1" as="geometry" />
        </mxCell>
        <mxCell id="bpieC7WKzqsFBxFrWJCF-23" style="edgeStyle=orthogonalEdgeStyle;rounded=1;exitX=1;exitY=0.5;entryX=0;entryY=0.5;endArrow=classic;html=1;" edge="1" parent="1" source="bpieC7WKzqsFBxFrWJCF-2" target="bpieC7WKzqsFBxFrWJCF-8">
          <mxGeometry relative="1" as="geometry" />
        </mxCell>
        <mxCell id="bpieC7WKzqsFBxFrWJCF-24" style="edgeStyle=orthogonalEdgeStyle;rounded=1;exitX=1;exitY=0.5;entryX=0;entryY=0.5;endArrow=classic;html=1;" edge="1" parent="1" source="bpieC7WKzqsFBxFrWJCF-2" target="bpieC7WKzqsFBxFrWJCF-9">
          <mxGeometry relative="1" as="geometry" />
        </mxCell>
        <mxCell id="bpieC7WKzqsFBxFrWJCF-25" style="edgeStyle=orthogonalEdgeStyle;rounded=1;exitX=1;exitY=0.5;entryX=0;entryY=0.5;endArrow=classic;html=1;" edge="1" parent="1" source="bpieC7WKzqsFBxFrWJCF-2" target="bpieC7WKzqsFBxFrWJCF-10">
          <mxGeometry relative="1" as="geometry" />
        </mxCell>
        <mxCell id="bpieC7WKzqsFBxFrWJCF-26" style="edgeStyle=orthogonalEdgeStyle;rounded=1;exitX=0;exitY=0.5;entryX=1;entryY=0.5;endArrow=classic;html=1;" edge="1" parent="1" source="bpieC7WKzqsFBxFrWJCF-3" target="bpieC7WKzqsFBxFrWJCF-11">
          <mxGeometry relative="1" as="geometry" />
        </mxCell>
        <mxCell id="bpieC7WKzqsFBxFrWJCF-27" style="edgeStyle=orthogonalEdgeStyle;rounded=1;exitX=0;exitY=0.5;entryX=1;entryY=0.5;endArrow=classic;html=1;" edge="1" parent="1" source="bpieC7WKzqsFBxFrWJCF-3" target="bpieC7WKzqsFBxFrWJCF-12">
          <mxGeometry relative="1" as="geometry" />
        </mxCell>
        <mxCell id="bpieC7WKzqsFBxFrWJCF-28" style="edgeStyle=orthogonalEdgeStyle;rounded=1;exitX=0;exitY=0.5;entryX=1;entryY=0.5;endArrow=classic;html=1;" edge="1" parent="1" source="bpieC7WKzqsFBxFrWJCF-3" target="bpieC7WKzqsFBxFrWJCF-13">
          <mxGeometry relative="1" as="geometry" />
        </mxCell>
        <mxCell id="bpieC7WKzqsFBxFrWJCF-29" style="edgeStyle=orthogonalEdgeStyle;rounded=1;exitX=0;exitY=0.5;entryX=1;entryY=0.5;endArrow=classic;html=1;" edge="1" parent="1" source="bpieC7WKzqsFBxFrWJCF-3" target="bpieC7WKzqsFBxFrWJCF-14">
          <mxGeometry relative="1" as="geometry" />
        </mxCell>
        <mxCell id="bpieC7WKzqsFBxFrWJCF-30" style="edgeStyle=orthogonalEdgeStyle;rounded=1;exitX=0;exitY=0.5;entryX=1;entryY=0.5;endArrow=classic;html=1;" edge="1" parent="1" source="bpieC7WKzqsFBxFrWJCF-3" target="bpieC7WKzqsFBxFrWJCF-15">
          <mxGeometry relative="1" as="geometry" />
        </mxCell>
        <mxCell id="bpieC7WKzqsFBxFrWJCF-31" style="edgeStyle=orthogonalEdgeStyle;rounded=1;exitX=1;exitY=0.5;entryX=0;entryY=0.5;endArrow=classic;html=1;" edge="1" parent="1" source="bpieC7WKzqsFBxFrWJCF-4" target="bpieC7WKzqsFBxFrWJCF-16">
          <mxGeometry relative="1" as="geometry" />
        </mxCell>
        <mxCell id="bpieC7WKzqsFBxFrWJCF-32" style="edgeStyle=orthogonalEdgeStyle;rounded=1;exitX=1;exitY=0.5;entryX=0;entryY=0.5;endArrow=classic;html=1;" edge="1" parent="1" source="bpieC7WKzqsFBxFrWJCF-4" target="bpieC7WKzqsFBxFrWJCF-17">
          <mxGeometry relative="1" as="geometry" />
        </mxCell>
        <mxCell id="bpieC7WKzqsFBxFrWJCF-33" style="edgeStyle=orthogonalEdgeStyle;rounded=1;exitX=1;exitY=0.5;entryX=0;entryY=0.5;endArrow=classic;html=1;" edge="1" parent="1" source="bpieC7WKzqsFBxFrWJCF-4" target="bpieC7WKzqsFBxFrWJCF-18">
          <mxGeometry relative="1" as="geometry" />
        </mxCell>
        <mxCell id="bpieC7WKzqsFBxFrWJCF-34" style="edgeStyle=orthogonalEdgeStyle;rounded=1;exitX=1;exitY=0.5;entryX=0;entryY=0.5;endArrow=classic;html=1;" edge="1" parent="1" source="bpieC7WKzqsFBxFrWJCF-4" target="bpieC7WKzqsFBxFrWJCF-19">
          <mxGeometry relative="1" as="geometry" />
        </mxCell>
      </root>
    </mxGraphModel>
  </diagram>
</mxfile>
